<svg xmlns="http://www.w3.org/2000/svg" xmlns:xlink="http://www.w3.org/1999/xlink" viewBox="0 0 698.29 95.23">
    <defs>
        <style>.cls-1{fill:url(#linear-gradient);}.cls-2{fill:url(#linear-gradient-2);}.cls-3{fill:url(#linear-gradient-3);}.cls-4{fill:url(#linear-gradient-4);}.cls-5{fill:url(#linear-gradient-5);}.cls-6{fill:url(#linear-gradient-6);}.cls-7{fill:url(#linear-gradient-7);}.cls-8{fill:url(#linear-gradient-8);}.cls-9{fill:url(#linear-gradient-9);}</style>
        <linearGradient id="linear-gradient" x1="35.06" y1="95.05" x2="35.06" y2="7.36" gradientUnits="userSpaceOnUse">
            <stop offset="0" stop-color="#b58ecc" />
            <stop offset="1" stop-color="#5de6de" />
        </linearGradient>
        <linearGradient id="linear-gradient-2" x1="118.55" y1="95.05" x2="118.55" y2="7.36" xlink:href="#linear-gradient" />
        <linearGradient id="linear-gradient-3" x1="203.56" y1="95.05" x2="203.56" y2="7.36" xlink:href="#linear-gradient" />
        <linearGradient id="linear-gradient-4" x1="384.13" y1="95.05" x2="384.13" y2="7.36" xlink:href="#linear-gradient" />
        <linearGradient id="linear-gradient-5" x1="462.81" y1="95.05" x2="462.81" y2="7.36" xlink:href="#linear-gradient" />
        <linearGradient id="linear-gradient-6" x1="545" y1="95.05" x2="545" y2="7.36" xlink:href="#linear-gradient" />
        <linearGradient id="linear-gradient-7" x1="618.15" y1="95.05" x2="618.15" y2="7.36" xlink:href="#linear-gradient" />
        <linearGradient id="linear-gradient-8" x1="674.78" y1="95.05" x2="674.78" y2="7.36" xlink:href="#linear-gradient" />
        <linearGradient id="linear-gradient-9" x1="301.06" y1="93.5" x2="301.06" y2="3.14" xlink:href="#linear-gradient" />
    </defs>
    <g id="Layer_2" data-name="Layer 2">
        <g id="Layer_1-2" data-name="Layer 1">
            <path class="cls-1" d="M10.84,87.77Q.76,80.32,0,66.42H26.64c.26,3.14,1.19,5.44,2.81,6.88a9,9,0,0,0,6.24,2.17,9.08,9.08,0,0,0,5.68-1.72A5.74,5.74,0,0,0,43.6,69a6.74,6.74,0,0,0-3.7-6.11,65.33,65.33,0,0,0-12-4.85A107.17,107.17,0,0,1,13.7,52.33a27.29,27.29,0,0,1-9.43-8q-4-5.29-4-13.83A25.2,25.2,0,0,1,4.59,15.62a26.79,26.79,0,0,1,12-9.37A44.63,44.63,0,0,1,33.91,3.06q15.68,0,25.05,7.33T69,31H41.81a8,8,0,0,0-2.48-6.12,8.94,8.94,0,0,0-6.06-2,6.46,6.46,0,0,0-4.59,1.66,6.09,6.09,0,0,0-1.78,4.71,5.81,5.81,0,0,0,2,4.4,18.51,18.51,0,0,0,4.91,3.19q2.94,1.34,8.67,3.38A105.31,105.31,0,0,1,56.54,46a28.75,28.75,0,0,1,9.56,8q4,5.16,4,13.06a26.52,26.52,0,0,1-4,14.41A27.66,27.66,0,0,1,54.5,91.53a40.55,40.55,0,0,1-17.91,3.7Q20.9,95.23,10.84,87.77Z" />
            <path class="cls-2" d="M148.19,30.4q7.2,8.22,7.2,22.25V94.33h-25V56q0-6.12-3.19-9.62a11,11,0,0,0-8.54-3.51,11.3,11.3,0,0,0-8.8,3.51Q106.7,49.85,106.7,56V94.33h-25V0h25V33a24.4,24.4,0,0,1,9-7.84,27.5,27.5,0,0,1,13.06-3Q141,22.18,148.19,30.4Z" />
            <path class="cls-3" d="M184.25,90.76A32.75,32.75,0,0,1,170.93,78a38,38,0,0,1-4.85-19.51A37.3,37.3,0,0,1,171,39.14a33.19,33.19,0,0,1,13.39-12.75,43.49,43.49,0,0,1,38.37,0,33.23,33.23,0,0,1,13.38,12.75A37.3,37.3,0,0,1,241,58.51,37.64,37.64,0,0,1,236.13,78a33,33,0,0,1-13.45,12.81,43.53,43.53,0,0,1-38.43,0Zm27.91-21.09q3.51-3.89,3.51-11.16t-3.51-11.09a11.19,11.19,0,0,0-8.6-3.82A11,11,0,0,0,195,47.42q-3.45,3.82-3.44,11.09t3.31,11.22a10.78,10.78,0,0,0,8.54,3.82A11.25,11.25,0,0,0,212.16,69.67Z" />
            <path class="cls-4" d="M407.65,73V94.33H396.81q-27.4,0-27.4-27.15V43.6h-8.8V22.82h8.8V5.48h25.11V22.82h13V43.6h-13v24c0,2,.45,3.36,1.34,4.21s2.4,1.27,4.52,1.27Z" />
            <path class="cls-5" d="M474.28,94.33,446.11,54.94V94.33h-25V4.46h25V43.21L474,4.46h28.81l-33,43.6,34.67,46.27Z" />
            <path class="cls-6" d="M581.84,22.82V94.33H556.73V84.13a23.46,23.46,0,0,1-8.8,7.84,26.87,26.87,0,0,1-12.87,3q-12.49,0-19.7-8.22t-7.2-22.37V22.82H533V61.19q0,6.12,3.25,9.62a12.38,12.38,0,0,0,17.27,0q3.19-3.5,3.19-9.62V22.82Z" />
            <path class="cls-7" d="M629.3,25.75a24.75,24.75,0,0,1,12.88-3.57V48.82h-7q-8.16,0-12.11,3.19t-4,11.09V94.33h-25V22.82h25V35.44A32.63,32.63,0,0,1,629.3,25.75Z" />
            <path class="cls-8" d="M698.29,73V94.33H687.46q-27.4,0-27.41-27.15V43.6h-8.79V22.82h8.79V5.48h25.11V22.82h13V43.6h-13v24c0,2,.45,3.36,1.34,4.21S688.9,73,691,73Z" />
            <path class="cls-9" d="M317.69,68.75V46.82a44.49,44.49,0,0,0-41.14,42.4v6H250.28c0-1.22,0-2.41.05-3.54a3.25,3.25,0,0,1,0-.44c0-2,.08-3.91.24-5.83A70.21,70.21,0,0,1,270.35,42,71,71,0,0,1,317.69,20.6V0l34.15,34.37Z" />
        </g>
    </g>
</svg>