<svg height="511.99975pt" viewBox="0 0 511.99975 511.99975" width="511.99975pt" xmlns="http://www.w3.org/2000/svg"><path d="m504.691406 305.339844c-5.828125-3.679688-13.1875-3.066406-18.398437 1.535156-36.792969 33.417969-84.320313 51.816406-133.683594 51.816406-54.882813 0-104.863281-22.382812-140.738281-58.5625-36.179688-35.875-58.5625-85.855468-58.5625-140.738281 0-49.363281 18.394531-96.890625 51.816406-133.683594 4.292969-5.214843 5.210938-12.570312 1.535156-18.398437-3.679687-5.824219-10.734375-8.582032-17.171875-6.742188-111.609375 31.578125-189.488281 134.601563-189.488281 250.808594 0 71.746094 29.128906 137.054688 76.347656 184.277344 47.21875 47.21875 112.527344 76.347656 184.277344 76.347656 116.203125 0 219.230469-77.882812 250.808594-189.488281 1.839844-6.441407-.917969-13.492188-6.742188-17.171875zm0 0" fill="#4a696f"/><path d="m390.320312 175.027344-35.566406-17.78125-.921875-.617188-18.089843-36.179687c-5.210938-10.421875-22.074219-10.421875-27.285157 0l-18.398437 36.179687-36.179688 18.398438c-5.214844 2.453125-8.585937 7.667968-8.585937 13.492187s3.371093 11.34375 8.585937 13.796875l36.179688 18.089844.613281.917969 17.785156 35.570312c2.453125 5.210938 7.664063 8.28125 13.492188 8.28125 5.824219 0 11.34375-3.070312 13.796875-8.28125l18.089844-36.488281 36.484374-18.089844c5.214844-2.453125 8.28125-7.96875 8.28125-13.796875s-3.066406-11.039062-8.28125-13.492187zm0 0" fill="#e1ebf0"/><path d="m490.585938 67.40625c0 8.585938-6.746094 15.332031-15.332032 15.332031h-15.332031v15.328125c0 8.585938-6.742187 15.332032-15.328125 15.332032s-15.332031-6.746094-15.332031-15.332032v-15.328125h-15.332031c-8.585938 0-15.328126-6.746093-15.328126-15.332031s6.742188-15.332031 15.328126-15.332031h15.332031v-15.328125c0-8.585938 6.746093-15.332032 15.332031-15.332032s15.328125 6.746094 15.328125 15.332032v15.328125h15.332031c8.585938 0 15.332032 6.746093 15.332032 15.332031zm0 0" fill="#e1ebf0"/><path d="m308.457031 256.894531-17.785156-35.570312 64.082031-64.078125 35.566406 17.78125c5.214844 2.453125 8.28125 7.667968 8.28125 13.492187 0 5.828125-3.066406 11.34375-8.28125 13.796875l-36.488281 18.09375-18.089843 36.484375c-2.453126 5.214844-7.96875 8.28125-13.796876 8.28125-5.824218 0-11.035156-3.070312-13.488281-8.28125zm0 0" fill="#b4d2d7"/><path d="m429.261719 98.066406v-15.328125l30.660156-30.664062h15.332031c8.585938 0 15.332032 6.746093 15.332032 15.332031s-6.746094 15.332031-15.332032 15.332031h-15.332031v15.328125c0 8.585938-6.742187 15.332032-15.328125 15.332032s-15.332031-6.746094-15.332031-15.332032zm0 0" fill="#b4d2d7"/><path d="m511.433594 322.511719c-31.578125 111.605469-134.601563 189.488281-250.808594 189.488281-71.75 0-137.058594-29.128906-184.277344-76.347656l135.523438-135.523438c35.875 36.179688 85.851562 58.5625 140.738281 58.5625 49.363281 0 96.886719-18.398437 133.683594-51.816406 5.210937-4.601562 12.570312-5.210938 18.398437-1.535156 5.824219 3.679687 8.582032 10.730468 6.742188 17.171875zm0 0" fill="#384949"/></svg>